<svg id="svg" version="1.1" xmlns="http://www.w3.org/2000/svg" xmlns:xlink="http://www.w3.org/1999/xlink" width="400" height="400" viewBox="0, 0, 400,400"><g id="svgg"><path id="path0" d="M19.794 89.702 C 17.075 90.077,16.969 90.134,16.363 91.552 C 15.902 92.632,15.222 93.276,13.769 94.008 C 12.686 94.553,11.710 95.102,11.600 95.227 C 11.158 95.727,5.015 96.800,2.589 96.800 L 0.000 96.800 0.000 209.400 L 0.000 322.000 1.735 322.000 C 2.690 322.000,4.895 321.571,6.635 321.046 C 8.376 320.521,11.510 319.683,13.600 319.184 C 15.690 318.685,18.978 317.766,20.908 317.142 C 22.837 316.518,25.132 315.892,26.008 315.752 C 26.883 315.612,27.600 315.361,27.600 315.194 C 27.600 315.027,28.095 314.804,28.700 314.698 C 41.169 312.515,42.664 312.072,45.575 309.706 C 46.771 308.733,48.571 307.519,49.575 307.009 C 50.617 306.478,51.915 305.354,52.600 304.386 C 54.062 302.322,54.912 301.440,57.292 299.510 C 58.661 298.399,59.302 297.499,59.807 295.978 C 60.421 294.129,63.684 289.269,65.062 288.150 C 65.368 287.902,66.150 286.123,66.801 284.196 C 67.559 281.955,68.584 279.917,69.645 278.542 C 70.848 276.982,71.785 274.996,73.054 271.310 C 74.016 268.516,75.073 266.079,75.402 265.895 C 75.731 265.711,76.000 265.377,76.000 265.152 C 76.000 264.928,76.512 263.992,77.138 263.072 C 78.380 261.248,79.026 259.608,80.582 254.335 C 81.284 251.955,82.049 250.328,83.027 249.135 C 83.809 248.181,84.731 247.057,85.075 246.637 C 85.419 246.217,86.327 244.004,87.092 241.718 C 87.857 239.432,88.875 237.076,89.353 236.481 C 91.170 234.222,92.401 232.100,93.577 229.201 C 94.246 227.552,94.975 226.142,95.197 226.068 C 95.418 225.994,95.600 225.704,95.600 225.423 C 95.600 224.923,101.189 218.601,103.785 216.166 C 106.016 214.073,110.023 213.043,114.920 213.305 C 119.254 213.537,124.800 214.619,124.800 215.232 C 124.800 215.434,125.035 215.600,125.322 215.600 C 125.609 215.600,126.731 216.163,127.816 216.851 C 137.134 222.761,156.170 222.498,161.005 216.393 C 161.869 215.303,163.420 213.886,164.450 213.245 C 165.616 212.520,166.860 211.242,167.743 209.862 C 168.524 208.641,169.610 207.350,170.156 206.992 C 171.396 206.179,172.366 204.330,173.770 200.100 C 174.373 198.285,175.019 196.800,175.206 196.800 C 175.393 196.800,175.668 196.415,175.817 195.945 C 175.966 195.475,176.697 194.294,177.440 193.320 C 178.365 192.108,179.297 189.947,180.395 186.464 C 181.762 182.128,184.154 177.164,185.246 176.396 C 185.588 176.156,186.971 172.676,187.350 171.100 C 187.791 169.270,186.249 169.714,183.879 172.100 C 181.046 174.952,180.417 175.397,178.154 176.149 C 176.771 176.609,175.748 177.329,174.653 178.613 C 171.965 181.767,167.333 182.704,157.972 181.987 C 149.676 181.351,148.654 181.068,146.321 178.759 C 144.602 177.059,143.963 176.710,141.568 176.165 C 140.045 175.819,138.800 175.400,138.800 175.233 C 138.800 175.067,137.783 174.416,136.541 173.788 C 135.144 173.081,133.993 172.156,133.527 171.366 C 132.831 170.187,130.904 169.068,128.110 168.222 C 127.017 167.891,125.600 166.155,125.600 165.146 C 125.600 164.736,125.463 164.400,125.295 164.400 C 125.127 164.400,124.812 163.996,124.595 163.502 C 124.378 163.008,123.660 162.372,123.000 162.088 C 119.782 160.705,119.695 160.618,118.312 157.400 C 118.028 156.740,117.392 156.022,116.898 155.805 C 116.404 155.588,116.000 155.273,116.000 155.105 C 116.000 154.937,115.664 154.800,115.254 154.800 C 114.030 154.800,112.451 153.264,111.948 151.585 C 111.390 149.723,110.718 149.068,108.706 148.422 C 107.085 147.901,105.600 146.335,105.600 145.146 C 105.600 144.736,105.463 144.400,105.295 144.400 C 105.127 144.400,104.812 143.995,104.595 143.500 C 104.378 143.005,103.433 142.232,102.496 141.781 C 100.256 140.706,99.784 140.192,98.272 137.188 C 97.244 135.146,96.741 134.574,95.649 134.211 C 94.225 133.737,92.400 131.936,92.400 131.005 C 92.400 130.294,90.608 129.043,88.706 128.427 C 87.084 127.900,85.600 126.333,85.600 125.146 C 85.600 124.736,85.420 124.400,85.200 124.400 C 84.980 124.400,84.800 124.135,84.800 123.810 C 84.800 123.186,83.289 122.277,81.565 121.865 C 79.887 121.464,78.453 120.071,77.934 118.337 C 77.401 116.557,77.419 116.569,74.705 116.206 C 73.662 116.067,72.582 115.726,72.305 115.450 C 72.027 115.174,70.920 114.433,69.845 113.804 C 68.770 113.174,67.559 112.097,67.153 111.410 C 66.715 110.668,65.723 109.865,64.708 109.431 C 63.769 109.030,62.250 108.380,61.334 107.988 C 59.580 107.237,58.633 106.128,58.183 104.297 C 57.995 103.531,57.588 103.126,56.856 102.973 C 53.159 102.205,51.970 101.810,50.053 100.714 C 48.848 100.026,47.562 98.903,47.120 98.153 C 46.302 96.768,45.087 96.226,41.700 95.737 C 40.765 95.602,40.000 95.336,40.000 95.146 C 40.000 94.956,39.752 94.800,39.448 94.800 C 38.039 94.800,34.278 92.639,33.555 91.414 C 32.277 89.247,27.455 88.647,19.794 89.702 " stroke="none" fill="#fc8c34" fill-rule="evenodd"></path><path id="path1" d="M21.708 78.446 C 20.777 78.874,17.627 79.732,14.708 80.353 C 9.218 81.521,5.604 82.795,4.174 84.066 C 3.653 84.530,2.732 84.800,1.674 84.800 L 0.000 84.800 0.000 89.254 L 0.000 93.707 2.700 93.501 C 6.229 93.231,9.301 92.022,11.907 89.880 C 17.847 84.997,34.040 85.339,40.442 90.482 C 41.234 91.119,43.126 92.061,44.646 92.575 C 49.343 94.164,50.439 94.740,52.147 96.521 C 53.216 97.635,55.143 98.895,57.600 100.087 C 59.847 101.176,62.196 102.680,63.347 103.765 C 64.418 104.774,65.350 105.600,65.419 105.600 C 66.038 105.600,71.023 108.930,72.600 110.398 C 73.700 111.421,75.410 112.597,76.400 113.009 C 78.922 114.060,79.303 114.352,81.086 116.605 C 81.985 117.740,83.448 118.989,84.479 119.501 C 85.476 119.997,87.621 121.716,89.246 123.322 C 90.871 124.928,93.315 126.914,94.678 127.736 C 97.070 129.179,99.260 131.567,102.169 135.902 C 102.797 136.838,103.918 137.978,104.659 138.436 C 105.400 138.895,106.795 140.289,107.758 141.535 C 108.721 142.781,111.364 145.600,113.631 147.800 C 115.898 150.000,118.596 152.678,119.626 153.750 C 121.696 155.905,123.122 157.335,128.326 162.466 C 131.202 165.303,132.476 166.234,135.344 167.596 C 137.272 168.512,138.949 169.524,139.072 169.844 C 139.470 170.881,142.671 172.777,145.067 173.395 C 147.600 174.049,149.683 174.811,150.000 175.200 C 150.582 175.913,160.809 178.568,163.000 178.574 C 165.385 178.581,170.242 176.615,171.876 174.982 C 172.184 174.673,173.193 174.215,174.118 173.963 C 175.043 173.710,176.403 173.326,177.141 173.107 C 177.879 172.889,179.842 171.471,181.505 169.955 C 183.167 168.440,184.733 167.200,184.984 167.200 C 185.235 167.200,185.970 166.362,186.617 165.339 C 187.264 164.315,189.021 162.242,190.522 160.733 C 192.022 159.223,193.607 157.181,194.044 156.194 C 194.480 155.207,195.076 154.400,195.367 154.400 C 196.202 154.400,201.653 150.660,203.200 149.026 C 203.970 148.213,205.140 147.290,205.800 146.974 C 206.460 146.659,207.523 145.951,208.162 145.401 C 208.801 144.850,209.555 144.400,209.838 144.400 C 210.120 144.400,211.164 143.697,212.157 142.837 C 216.452 139.120,227.430 139.070,231.778 142.747 C 234.586 145.122,234.925 145.352,237.299 146.489 C 239.011 147.309,239.763 147.951,240.345 149.089 C 241.324 151.003,242.597 152.369,244.493 153.537 C 245.536 154.179,246.422 155.285,247.430 157.205 C 248.224 158.716,249.730 160.845,250.776 161.936 C 251.891 163.099,253.153 165.012,253.828 166.560 C 254.460 168.012,255.118 169.200,255.289 169.200 C 255.460 169.200,255.600 169.478,255.600 169.817 C 255.600 170.157,256.590 171.417,257.800 172.617 C 259.010 173.818,260.000 175.089,260.000 175.441 C 260.000 176.676,262.846 181.485,264.523 183.084 C 265.765 184.267,266.469 185.429,267.169 187.448 C 268.500 191.287,268.925 192.043,270.886 194.062 C 271.919 195.125,273.081 196.950,273.786 198.618 C 274.434 200.148,275.196 201.638,275.482 201.929 C 275.767 202.219,276.001 202.669,276.003 202.929 C 276.005 203.188,276.833 204.210,277.843 205.200 C 278.925 206.260,280.242 208.184,281.049 209.881 C 282.019 211.923,282.872 213.087,283.978 213.881 C 284.985 214.604,286.221 216.194,287.469 218.373 C 288.531 220.227,290.272 222.747,291.339 223.973 C 292.405 225.198,293.627 226.880,294.053 227.712 C 295.165 229.881,295.935 230.703,298.257 232.205 C 299.725 233.154,300.642 234.146,301.457 235.668 C 302.365 237.362,303.038 238.035,304.732 238.943 C 306.300 239.783,307.233 240.662,308.259 242.266 C 309.026 243.465,309.957 244.557,310.327 244.694 C 310.697 244.830,311.090 245.057,311.200 245.198 C 311.310 245.339,312.570 245.997,314.000 246.660 C 315.430 247.324,317.428 248.583,318.439 249.459 C 319.451 250.336,320.852 251.290,321.553 251.580 C 323.810 252.515,336.901 254.703,337.958 254.321 C 338.485 254.131,341.407 253.539,344.453 253.005 C 350.788 251.893,351.076 251.776,352.777 249.629 C 353.500 248.716,354.916 247.630,356.116 247.068 C 357.262 246.531,358.740 245.421,359.400 244.601 C 360.060 243.781,361.818 241.885,363.308 240.389 C 364.805 238.884,366.378 236.847,366.827 235.832 C 367.414 234.505,368.060 233.782,369.157 233.222 C 370.774 232.397,372.574 230.506,373.667 228.484 C 374.034 227.805,375.024 226.891,375.867 226.452 C 376.710 226.014,377.840 224.967,378.378 224.127 C 380.781 220.375,381.823 219.764,386.769 219.203 C 390.951 218.730,393.024 219.423,395.715 222.194 C 396.785 223.296,397.397 223.600,398.540 223.600 L 400.000 223.600 400.000 217.200 L 400.000 210.800 398.300 210.796 C 396.878 210.792,396.372 210.557,395.204 209.355 C 393.148 207.240,391.007 206.262,389.029 206.536 C 384.914 207.105,383.299 207.671,381.464 209.187 C 380.432 210.041,378.735 211.047,377.693 211.424 C 373.442 212.961,372.561 213.544,371.564 215.480 C 370.957 216.656,370.081 217.629,369.200 218.105 C 367.617 218.959,364.673 221.835,364.276 222.915 C 364.132 223.308,363.513 223.917,362.901 224.268 C 361.526 225.057,359.354 227.836,358.998 229.262 C 358.668 230.580,357.421 231.781,355.586 232.548 C 353.948 233.233,353.130 234.098,352.414 235.908 C 351.889 237.234,349.907 239.200,349.096 239.200 C 348.158 239.200,344.937 240.975,343.600 242.228 C 340.100 245.509,330.870 245.529,328.001 242.263 C 327.319 241.485,326.094 240.639,325.280 240.383 C 322.674 239.563,318.576 236.898,317.042 235.025 C 315.987 233.738,314.675 232.785,312.551 231.764 C 310.386 230.722,309.439 230.029,309.152 229.273 C 308.429 227.373,305.978 224.553,304.623 224.063 C 303.606 223.695,303.149 223.181,302.629 221.819 C 301.634 219.215,298.954 215.254,296.788 213.188 C 295.742 212.191,294.482 210.515,293.988 209.465 C 293.495 208.414,292.643 207.250,292.096 206.877 C 290.223 205.602,288.778 203.800,288.347 202.202 C 287.669 199.687,286.527 197.745,285.147 196.763 C 284.240 196.117,283.257 194.554,281.711 191.301 C 280.405 188.554,278.929 186.110,277.995 185.147 C 277.143 184.269,276.229 182.887,275.965 182.075 C 275.700 181.264,275.375 180.510,275.242 180.400 C 275.109 180.290,274.468 179.030,273.817 177.600 C 273.124 176.077,271.861 174.237,270.768 173.158 C 269.500 171.906,268.676 170.634,268.195 169.186 C 267.249 166.337,266.271 164.750,264.780 163.649 C 263.972 163.051,262.854 161.323,261.558 158.667 C 259.995 155.466,259.073 154.131,257.226 152.400 C 255.936 151.190,254.507 149.480,254.051 148.600 C 253.073 146.715,251.817 145.273,250.297 144.291 C 249.694 143.901,249.200 143.378,249.200 143.129 C 249.200 142.052,247.110 140.033,245.307 139.369 C 242.991 138.516,241.674 137.415,240.957 135.733 C 240.032 133.563,238.439 132.787,233.276 131.991 C 227.532 131.106,224.765 130.448,224.068 129.802 C 223.646 129.410,222.945 129.423,220.668 129.869 C 209.070 132.136,204.725 133.773,203.227 136.438 C 201.945 138.719,200.536 140.275,198.164 142.027 C 197.007 142.881,195.938 143.964,195.789 144.433 C 195.279 146.041,186.033 155.682,184.550 156.152 C 184.087 156.299,182.960 157.307,182.045 158.393 C 180.971 159.666,179.396 160.884,177.605 161.825 C 175.744 162.803,174.670 163.645,174.343 164.383 C 173.161 167.054,166.503 169.096,160.600 168.599 C 151.324 167.817,147.774 166.822,146.416 164.626 C 145.870 163.742,144.680 162.879,142.620 161.875 C 140.681 160.928,138.951 159.702,137.727 158.406 C 136.686 157.302,135.602 156.400,135.317 156.400 C 135.033 156.400,134.444 156.044,134.008 155.608 C 133.572 155.172,132.221 154.255,131.006 153.569 C 129.791 152.883,128.482 151.897,128.098 151.378 C 127.714 150.859,126.950 149.813,126.400 149.054 C 125.850 148.295,124.680 147.172,123.800 146.559 C 122.810 145.869,121.133 143.835,119.400 141.222 C 117.860 138.900,116.196 136.804,115.702 136.564 C 115.208 136.324,113.678 134.852,112.302 133.293 C 110.926 131.734,108.540 129.350,107.000 127.996 C 105.460 126.641,104.076 125.201,103.924 124.797 C 103.772 124.392,102.602 123.294,101.324 122.356 C 97.891 119.838,95.213 117.607,93.405 115.758 C 92.522 114.855,91.042 113.642,90.115 113.063 C 89.189 112.483,88.019 111.453,87.516 110.772 C 86.977 110.043,85.414 108.963,83.712 108.145 C 81.394 107.030,80.482 106.307,79.103 104.493 C 77.787 102.761,77.005 102.121,75.770 101.763 C 73.277 101.041,71.076 99.794,69.155 98.014 C 68.190 97.119,66.950 95.975,66.400 95.471 C 65.850 94.967,64.204 94.051,62.743 93.435 C 61.193 92.783,59.499 91.698,58.679 90.832 C 57.848 89.955,56.563 89.137,55.537 88.830 C 51.881 87.740,49.018 86.167,48.010 84.697 C 46.543 82.555,44.435 81.636,39.001 80.767 C 36.361 80.345,33.210 79.652,32.000 79.228 C 30.790 78.803,28.900 78.345,27.800 78.210 C 26.700 78.075,25.260 77.898,24.600 77.817 C 23.940 77.736,22.639 78.019,21.708 78.446 " stroke="none" fill="#333333" fill-rule="evenodd"></path><path id="path2" d="M0.000 40.000 L 0.000 80.000 1.700 79.991 C 5.697 79.969,14.213 77.368,16.057 75.605 C 19.387 72.423,34.400 72.073,34.400 75.178 C 34.400 75.410,34.642 75.600,34.938 75.600 C 35.234 75.600,35.783 75.939,36.157 76.353 C 36.875 77.146,39.673 78.032,44.000 78.835 C 47.232 79.435,48.999 80.302,51.234 82.386 C 52.193 83.281,53.568 84.226,54.289 84.487 C 55.010 84.747,55.600 85.098,55.600 85.265 C 55.600 85.432,56.365 85.771,57.300 86.017 C 59.637 86.633,62.124 88.137,62.755 89.316 C 63.082 89.926,63.907 90.483,64.940 90.788 C 67.512 91.549,71.066 93.883,72.291 95.616 C 73.318 97.068,77.386 99.600,78.693 99.600 C 79.369 99.600,82.000 102.307,82.000 103.003 C 82.000 103.620,83.956 104.800,84.980 104.800 C 85.321 104.800,85.600 104.944,85.600 105.120 C 85.600 105.295,86.197 105.655,86.927 105.919 C 87.658 106.183,89.413 107.479,90.827 108.799 C 92.242 110.119,93.942 111.457,94.605 111.773 C 95.795 112.340,97.334 113.733,100.749 117.333 C 101.711 118.347,103.297 119.563,104.274 120.036 C 105.308 120.537,106.438 121.502,106.979 122.348 C 107.489 123.147,108.642 124.520,109.539 125.400 C 111.601 127.421,112.979 128.799,115.000 130.861 C 115.880 131.758,117.282 132.929,118.116 133.461 C 118.949 133.994,119.796 134.864,119.998 135.394 C 120.673 137.171,123.293 140.781,124.430 141.500 C 125.048 141.892,126.477 143.379,127.605 144.806 C 131.135 149.271,132.362 150.397,135.526 152.077 C 139.354 154.110,139.526 154.248,140.181 155.815 C 140.856 157.431,142.968 159.053,144.853 159.402 C 146.812 159.765,148.706 160.971,149.506 162.366 C 150.151 163.489,153.411 164.800,155.561 164.800 C 155.986 164.800,156.393 164.975,156.467 165.190 C 156.646 165.713,165.183 165.863,165.531 165.349 C 165.679 165.130,166.842 164.722,168.115 164.443 C 170.125 164.003,170.558 163.734,171.393 162.411 C 172.516 160.632,174.110 159.409,175.800 159.031 C 176.999 158.762,179.200 157.130,179.200 156.510 C 179.200 155.858,181.640 153.241,182.504 152.967 C 183.822 152.549,186.403 150.353,187.053 149.098 C 187.366 148.492,188.340 147.543,189.216 146.990 C 190.204 146.366,191.225 145.211,191.905 143.947 C 193.308 141.337,194.718 139.600,195.434 139.600 C 196.330 139.600,199.200 136.787,199.200 135.909 C 199.200 135.135,201.822 128.205,202.419 127.400 C 202.583 127.180,203.212 126.100,203.819 125.000 C 204.425 123.900,205.065 122.905,205.240 122.789 C 205.416 122.673,206.033 120.873,206.612 118.789 C 208.069 113.549,208.680 112.019,209.965 110.400 C 211.516 108.446,212.246 106.930,213.413 103.235 C 213.969 101.474,214.644 99.796,214.912 99.506 C 216.319 97.988,217.912 95.577,218.681 93.800 C 221.032 88.367,221.675 87.239,223.581 85.211 C 224.713 84.007,226.373 81.644,227.271 79.959 C 228.574 77.514,229.801 76.036,233.352 72.638 C 235.798 70.296,239.240 66.962,241.000 65.229 C 243.626 62.643,244.953 61.705,248.400 59.996 C 250.710 58.851,253.173 57.484,253.873 56.957 C 254.574 56.431,255.326 56.000,255.545 56.000 C 255.764 56.000,256.222 55.721,256.563 55.380 C 257.684 54.258,262.601 53.504,266.794 53.811 L 270.589 54.089 272.660 56.244 C 273.799 57.430,274.844 58.400,274.982 58.400 C 275.289 58.400,277.463 59.898,278.745 60.993 C 279.264 61.437,280.372 62.800,281.207 64.023 C 282.042 65.245,283.376 66.685,284.171 67.223 C 285.245 67.948,286.137 69.230,287.636 72.200 C 288.747 74.400,290.257 77.051,290.992 78.092 C 291.727 79.133,292.801 81.383,293.378 83.092 C 294.219 85.584,294.821 86.597,296.416 88.200 C 298.472 90.267,299.297 92.015,301.171 98.279 C 301.645 99.862,302.655 102.063,303.416 103.169 C 304.177 104.275,304.800 105.288,304.800 105.419 C 304.800 105.550,305.054 105.911,305.365 106.222 C 305.676 106.533,306.407 108.185,306.990 109.894 C 308.147 113.286,309.102 115.215,311.116 118.230 C 311.840 119.313,312.891 121.668,313.452 123.462 C 314.012 125.256,314.724 127.056,315.034 127.462 C 315.344 127.868,316.156 128.920,316.839 129.800 C 318.305 131.690,319.299 133.564,320.410 136.534 C 320.985 138.072,321.870 139.318,323.447 140.809 C 325.052 142.327,326.051 143.745,327.032 145.899 C 328.053 148.137,329.145 149.657,331.397 151.971 C 333.048 153.669,334.406 155.225,334.413 155.429 C 334.429 155.916,336.633 158.017,338.400 159.231 C 339.170 159.760,340.737 161.041,341.882 162.076 C 343.096 163.175,344.638 164.141,345.582 164.395 C 346.472 164.635,347.200 164.983,347.200 165.168 C 347.200 166.732,357.572 166.784,358.800 165.227 C 359.502 164.336,362.973 161.905,365.000 160.884 C 368.864 158.938,370.613 157.430,372.613 154.322 C 373.648 152.715,375.621 150.294,376.998 148.943 C 378.585 147.385,379.887 145.644,380.554 144.189 C 381.195 142.789,382.459 141.071,383.791 139.791 C 385.345 138.298,386.222 137.037,386.824 135.428 C 387.290 134.183,388.574 132.048,389.678 130.683 C 391.699 128.183,392.598 126.534,393.772 123.172 C 394.733 120.422,396.759 118.400,398.554 118.400 L 400.000 118.400 400.000 59.200 L 400.000 0.000 200.000 0.000 L 0.000 0.000 0.000 40.000 M219.743 143.951 C 217.883 144.373,216.626 144.903,216.143 145.468 C 215.734 145.946,214.094 146.798,212.498 147.361 C 208.907 148.627,207.844 149.310,206.777 151.037 C 206.317 151.781,205.345 152.673,204.616 153.019 C 203.888 153.365,202.596 154.267,201.746 155.023 C 200.896 155.780,200.079 156.400,199.932 156.400 C 199.692 156.400,198.577 157.518,195.110 161.238 C 194.510 161.881,193.290 163.396,192.397 164.604 C 191.505 165.812,190.645 166.800,190.487 166.800 C 189.741 166.800,187.791 169.997,186.761 172.909 C 186.133 174.687,185.469 176.245,185.287 176.371 C 184.163 177.149,181.785 182.056,180.395 186.464 C 179.297 189.947,178.365 192.108,177.440 193.320 C 176.697 194.294,175.966 195.475,175.817 195.945 C 175.668 196.415,175.393 196.800,175.206 196.800 C 175.019 196.800,174.373 198.285,173.770 200.100 C 172.366 204.330,171.396 206.179,170.156 206.992 C 169.610 207.350,168.524 208.641,167.743 209.862 C 166.860 211.242,165.616 212.520,164.450 213.245 C 163.420 213.886,161.869 215.303,161.005 216.393 C 156.170 222.498,137.134 222.761,127.816 216.851 C 126.731 216.163,125.609 215.600,125.322 215.600 C 125.035 215.600,124.800 215.434,124.800 215.232 C 124.800 214.619,119.254 213.537,114.920 213.305 C 110.023 213.043,106.016 214.073,103.785 216.166 C 101.189 218.601,95.600 224.923,95.600 225.423 C 95.600 225.704,95.418 225.994,95.197 226.068 C 94.975 226.142,94.246 227.552,93.577 229.201 C 92.401 232.100,91.170 234.222,89.353 236.481 C 88.875 237.076,87.857 239.432,87.092 241.718 C 86.327 244.004,85.419 246.217,85.075 246.637 C 84.731 247.057,83.809 248.181,83.027 249.135 C 82.049 250.328,81.284 251.955,80.582 254.335 C 79.026 259.608,78.380 261.248,77.138 263.072 C 76.512 263.992,76.000 264.928,76.000 265.152 C 76.000 265.377,75.731 265.711,75.402 265.895 C 75.073 266.079,74.016 268.516,73.054 271.310 C 71.785 274.996,70.848 276.982,69.645 278.542 C 68.584 279.917,67.559 281.955,66.801 284.196 C 66.150 286.123,65.368 287.902,65.062 288.150 C 63.684 289.269,60.421 294.129,59.807 295.978 C 59.302 297.499,58.661 298.399,57.292 299.510 C 54.912 301.440,54.062 302.322,52.600 304.386 C 51.915 305.354,50.617 306.478,49.575 307.009 C 48.571 307.519,46.771 308.733,45.575 309.706 C 42.664 312.072,41.169 312.515,28.700 314.698 C 28.095 314.804,27.600 315.027,27.600 315.194 C 27.600 315.361,26.883 315.612,26.008 315.752 C 25.132 315.892,22.837 316.518,20.908 317.142 C 18.978 317.766,15.690 318.685,13.600 319.184 C 11.510 319.683,8.376 320.521,6.635 321.046 C 4.895 321.571,2.690 322.000,1.735 322.000 L 0.000 322.000 0.000 361.000 L 0.000 400.000 200.000 400.000 L 400.000 400.000 400.000 314.048 L 400.000 228.096 397.600 227.923 C 394.951 227.731,393.104 226.464,392.611 224.503 C 391.701 220.877,382.597 221.169,381.789 224.851 C 381.444 226.421,379.833 228.265,377.979 229.211 C 377.142 229.637,376.332 230.385,376.177 230.871 C 375.813 232.018,372.016 235.814,370.868 236.178 C 370.281 236.365,369.591 237.320,368.827 239.004 C 367.357 242.248,361.530 248.253,358.730 249.411 C 357.535 249.906,356.658 250.601,356.232 251.392 C 355.574 252.614,352.244 254.800,351.041 254.800 C 350.688 254.800,350.400 254.955,350.400 255.145 C 350.400 255.335,348.862 255.796,346.982 256.169 C 344.985 256.566,342.984 257.242,342.166 257.797 C 337.860 260.719,334.747 260.532,328.292 256.961 C 327.682 256.624,326.107 256.148,324.792 255.904 C 323.476 255.659,322.400 255.311,322.400 255.129 C 322.400 254.948,322.047 254.800,321.615 254.800 C 319.835 254.800,316.434 253.106,314.362 251.186 C 313.173 250.085,311.120 248.668,309.800 248.037 C 307.202 246.797,306.262 245.947,305.793 244.415 C 305.452 243.298,304.317 242.313,301.905 241.037 C 300.820 240.463,299.937 239.580,299.363 238.495 C 298.091 236.089,297.104 234.950,295.985 234.596 C 294.167 234.021,293.280 233.169,292.137 230.902 C 291.400 229.440,290.410 228.231,289.323 227.463 C 288.231 226.691,287.370 225.637,286.854 224.438 C 286.419 223.426,285.599 222.058,285.032 221.399 C 284.465 220.739,284.001 220.083,284.000 219.940 C 284.000 219.796,283.213 218.896,282.252 217.940 C 280.367 216.064,279.677 214.905,278.375 211.425 C 277.691 209.596,277.254 209.040,276.002 208.401 C 274.448 207.608,272.800 205.724,272.800 204.738 C 272.799 203.538,270.394 199.284,268.732 197.542 C 267.593 196.349,266.686 194.881,266.196 193.442 C 265.777 192.209,265.314 191.200,265.167 191.200 C 265.020 191.200,264.797 190.684,264.671 190.053 C 264.545 189.423,263.692 188.208,262.775 187.353 C 261.235 185.918,257.200 178.702,257.200 177.384 C 257.200 177.116,256.653 176.671,255.985 176.394 C 254.663 175.846,253.118 173.523,252.470 171.111 C 252.054 169.560,250.610 167.228,249.730 166.686 C 249.450 166.513,248.364 165.163,247.319 163.686 C 246.273 162.209,245.225 160.799,244.990 160.553 C 244.755 160.307,244.322 159.375,244.027 158.483 C 243.665 157.385,243.202 156.787,242.599 156.635 C 241.284 156.305,239.311 154.112,238.182 151.724 C 237.306 149.873,236.992 149.575,235.495 149.173 C 234.563 148.923,233.080 148.364,232.200 147.931 C 231.320 147.498,229.655 146.783,228.500 146.343 C 227.345 145.903,226.400 145.379,226.400 145.179 C 226.400 144.979,225.957 144.704,225.416 144.568 C 224.875 144.433,224.223 144.069,223.967 143.761 C 223.425 143.107,223.463 143.105,219.743 143.951 " stroke="none" fill="#fcfcfb" fill-rule="evenodd"></path><path id="path3" d="M259.696 54.208 C 258.318 54.507,256.910 55.032,256.567 55.376 C 256.224 55.719,255.764 56.000,255.545 56.000 C 255.326 56.000,254.574 56.431,253.873 56.957 C 253.173 57.484,250.710 58.851,248.400 59.996 C 244.953 61.705,243.626 62.643,241.000 65.229 C 239.240 66.962,235.798 70.296,233.352 72.638 C 229.801 76.036,228.574 77.514,227.271 79.959 C 226.373 81.644,224.713 84.007,223.581 85.211 C 221.675 87.239,221.032 88.367,218.681 93.800 C 217.912 95.577,216.319 97.988,214.912 99.506 C 214.644 99.796,213.969 101.474,213.413 103.235 C 212.246 106.930,211.516 108.446,209.965 110.400 C 208.680 112.019,208.069 113.549,206.612 118.789 C 206.033 120.873,205.416 122.673,205.240 122.789 C 205.065 122.905,204.425 123.900,203.819 125.000 C 203.212 126.100,202.583 127.180,202.419 127.400 C 201.822 128.205,199.200 135.135,199.200 135.909 C 199.200 136.787,196.330 139.600,195.434 139.600 C 194.718 139.600,193.308 141.337,191.905 143.947 C 191.225 145.211,190.204 146.366,189.216 146.990 C 188.340 147.543,187.366 148.492,187.053 149.098 C 186.403 150.353,183.822 152.549,182.504 152.967 C 181.640 153.241,179.200 155.858,179.200 156.510 C 179.200 157.130,176.999 158.762,175.800 159.031 C 174.110 159.409,172.516 160.632,171.393 162.411 C 170.558 163.734,170.125 164.003,168.115 164.443 C 166.842 164.722,165.679 165.130,165.531 165.349 C 165.183 165.863,156.646 165.713,156.467 165.190 C 156.393 164.975,155.986 164.800,155.561 164.800 C 153.411 164.800,150.151 163.489,149.506 162.366 C 148.706 160.971,146.812 159.765,144.853 159.402 C 142.968 159.053,140.856 157.431,140.181 155.815 C 139.526 154.248,139.354 154.110,135.526 152.077 C 132.362 150.397,131.135 149.271,127.605 144.806 C 126.477 143.379,125.048 141.892,124.430 141.500 C 123.293 140.781,120.673 137.171,119.998 135.394 C 119.796 134.864,118.949 133.994,118.116 133.461 C 117.282 132.929,115.880 131.758,115.000 130.861 C 112.979 128.799,111.601 127.421,109.539 125.400 C 108.642 124.520,107.489 123.147,106.979 122.348 C 106.438 121.502,105.308 120.537,104.274 120.036 C 103.297 119.563,101.711 118.347,100.749 117.333 C 97.334 113.733,95.795 112.340,94.605 111.773 C 93.942 111.457,92.242 110.119,90.827 108.799 C 89.413 107.479,87.658 106.183,86.927 105.919 C 86.197 105.655,85.600 105.295,85.600 105.120 C 85.600 104.944,85.321 104.800,84.980 104.800 C 83.956 104.800,82.000 103.620,82.000 103.003 C 82.000 102.307,79.369 99.600,78.693 99.600 C 77.386 99.600,73.318 97.068,72.291 95.616 C 71.066 93.883,67.512 91.549,64.940 90.788 C 63.907 90.483,63.082 89.926,62.755 89.316 C 62.124 88.137,59.637 86.633,57.300 86.017 C 56.365 85.771,55.600 85.432,55.600 85.265 C 55.600 85.098,55.010 84.747,54.289 84.487 C 53.568 84.226,52.193 83.281,51.234 82.386 C 48.999 80.302,47.232 79.435,44.000 78.835 C 39.673 78.032,36.875 77.146,36.157 76.353 C 35.783 75.939,35.234 75.600,34.938 75.600 C 34.642 75.600,34.400 75.410,34.400 75.178 C 34.400 72.073,19.387 72.423,16.057 75.605 C 14.213 77.368,5.697 79.969,1.700 79.991 L 0.000 80.000 0.000 82.400 L 0.000 84.800 1.674 84.800 C 2.732 84.800,3.653 84.530,4.174 84.066 C 5.605 82.794,9.220 81.521,14.723 80.350 C 17.651 79.727,20.833 78.869,21.794 78.444 C 23.858 77.531,28.162 77.858,32.000 79.219 C 33.210 79.648,36.361 80.345,39.001 80.767 C 44.435 81.636,46.543 82.555,48.010 84.697 C 49.018 86.167,51.881 87.740,55.537 88.830 C 56.563 89.137,57.848 89.955,58.679 90.832 C 59.499 91.698,61.193 92.783,62.743 93.435 C 64.204 94.051,65.850 94.967,66.400 95.471 C 66.950 95.975,68.190 97.119,69.155 98.014 C 71.076 99.794,73.277 101.041,75.770 101.763 C 77.005 102.121,77.787 102.761,79.103 104.493 C 80.482 106.307,81.394 107.030,83.712 108.145 C 85.414 108.963,86.977 110.043,87.516 110.772 C 88.019 111.453,89.189 112.483,90.115 113.063 C 91.042 113.642,92.522 114.855,93.405 115.758 C 95.213 117.607,97.891 119.838,101.324 122.356 C 102.602 123.294,103.772 124.393,103.924 124.799 C 104.076 125.204,105.492 126.676,107.071 128.068 C 108.649 129.461,111.037 131.845,112.377 133.366 C 113.716 134.887,115.214 136.327,115.706 136.566 C 116.198 136.805,117.860 138.900,119.400 141.222 C 121.133 143.835,122.810 145.869,123.800 146.559 C 124.680 147.172,125.850 148.295,126.400 149.054 C 126.950 149.813,127.714 150.859,128.098 151.378 C 128.482 151.897,129.791 152.883,131.006 153.569 C 132.221 154.255,133.572 155.172,134.008 155.608 C 134.444 156.044,135.033 156.400,135.317 156.400 C 135.602 156.400,136.686 157.302,137.727 158.406 C 138.951 159.702,140.681 160.928,142.620 161.875 C 144.680 162.879,145.870 163.742,146.416 164.626 C 147.774 166.822,151.324 167.817,160.600 168.599 C 166.503 169.096,173.161 167.054,174.343 164.383 C 174.670 163.645,175.744 162.803,177.605 161.825 C 179.396 160.884,180.971 159.666,182.045 158.393 C 182.960 157.307,184.087 156.299,184.550 156.152 C 186.033 155.682,195.279 146.041,195.789 144.433 C 195.938 143.964,197.007 142.881,198.164 142.027 C 200.536 140.275,201.945 138.719,203.227 136.438 C 204.725 133.773,209.070 132.136,220.668 129.869 C 222.945 129.423,223.646 129.410,224.068 129.802 C 224.765 130.448,227.532 131.106,233.276 131.991 C 238.439 132.787,240.032 133.563,240.957 135.733 C 241.674 137.415,242.991 138.516,245.307 139.369 C 247.110 140.033,249.200 142.052,249.200 143.129 C 249.200 143.378,249.694 143.901,250.297 144.291 C 251.817 145.273,253.073 146.715,254.051 148.600 C 254.507 149.480,255.936 151.190,257.226 152.400 C 259.073 154.131,259.995 155.466,261.558 158.667 C 262.854 161.323,263.972 163.051,264.780 163.649 C 266.271 164.750,267.249 166.337,268.195 169.186 C 268.676 170.634,269.500 171.906,270.768 173.158 C 271.861 174.237,273.124 176.077,273.817 177.600 C 274.468 179.030,275.109 180.290,275.242 180.400 C 275.375 180.510,275.700 181.264,275.965 182.075 C 276.229 182.887,277.143 184.269,277.995 185.147 C 278.929 186.110,280.405 188.554,281.711 191.301 C 283.257 194.554,284.240 196.117,285.147 196.763 C 286.527 197.745,287.669 199.687,288.347 202.202 C 288.778 203.800,290.223 205.602,292.096 206.877 C 292.643 207.250,293.495 208.414,293.988 209.465 C 294.482 210.515,295.742 212.191,296.788 213.188 C 298.954 215.254,301.634 219.215,302.629 221.819 C 303.149 223.181,303.606 223.695,304.623 224.063 C 305.978 224.553,308.429 227.373,309.152 229.273 C 309.439 230.029,310.386 230.722,312.551 231.764 C 314.675 232.785,315.987 233.738,317.042 235.025 C 318.576 236.898,322.674 239.563,325.280 240.383 C 326.094 240.639,327.319 241.485,328.001 242.263 C 330.870 245.529,340.100 245.509,343.600 242.228 C 344.937 240.975,348.158 239.200,349.096 239.200 C 349.907 239.200,351.889 237.234,352.414 235.908 C 353.130 234.098,353.948 233.233,355.586 232.548 C 357.421 231.781,358.668 230.580,358.998 229.262 C 359.354 227.836,361.526 225.057,362.901 224.268 C 363.513 223.917,364.132 223.308,364.276 222.915 C 364.673 221.835,367.617 218.959,369.200 218.105 C 370.081 217.629,370.957 216.656,371.564 215.480 C 372.561 213.544,373.442 212.961,377.693 211.424 C 378.735 211.047,380.432 210.041,381.464 209.187 C 383.299 207.671,384.914 207.105,389.029 206.536 C 391.007 206.262,393.148 207.240,395.204 209.355 C 396.372 210.557,396.878 210.792,398.300 210.796 L 400.000 210.800 400.000 164.600 L 400.000 118.400 398.554 118.400 C 396.759 118.400,394.733 120.422,393.772 123.172 C 392.598 126.534,391.699 128.183,389.678 130.683 C 388.574 132.048,387.290 134.183,386.824 135.428 C 386.222 137.037,385.345 138.298,383.791 139.791 C 382.459 141.071,381.195 142.789,380.554 144.189 C 379.887 145.644,378.585 147.385,376.998 148.943 C 375.621 150.294,373.648 152.715,372.613 154.322 C 370.613 157.430,368.864 158.938,365.000 160.884 C 362.973 161.905,359.502 164.336,358.800 165.227 C 357.572 166.784,347.200 166.732,347.200 165.168 C 347.200 164.983,346.472 164.635,345.582 164.395 C 344.638 164.141,343.096 163.175,341.882 162.076 C 340.737 161.041,339.170 159.760,338.400 159.231 C 336.633 158.017,334.429 155.916,334.413 155.429 C 334.406 155.225,333.048 153.669,331.397 151.971 C 329.145 149.657,328.053 148.137,327.032 145.899 C 326.051 143.745,325.052 142.327,323.447 140.809 C 321.870 139.318,320.985 138.072,320.410 136.534 C 319.299 133.564,318.305 131.690,316.839 129.800 C 316.156 128.920,315.344 127.868,315.034 127.462 C 314.724 127.056,314.012 125.256,313.452 123.462 C 312.891 121.668,311.840 119.313,311.116 118.230 C 309.102 115.215,308.147 113.286,306.990 109.894 C 306.407 108.185,305.676 106.533,305.365 106.222 C 305.054 105.911,304.800 105.550,304.800 105.419 C 304.800 105.288,304.177 104.275,303.416 103.169 C 302.655 102.063,301.645 99.862,301.171 98.279 C 299.297 92.015,298.472 90.267,296.416 88.200 C 294.821 86.597,294.219 85.584,293.378 83.092 C 292.801 81.383,291.727 79.133,290.992 78.092 C 290.257 77.051,288.747 74.400,287.636 72.200 C 286.137 69.230,285.245 67.948,284.171 67.223 C 283.376 66.685,282.042 65.245,281.207 64.023 C 280.372 62.800,279.264 61.437,278.745 60.993 C 277.416 59.858,275.285 58.400,274.954 58.400 C 274.801 58.400,273.817 57.466,272.767 56.324 C 270.278 53.617,265.772 52.888,259.696 54.208 M217.400 140.246 C 214.855 140.902,213.780 141.433,212.157 142.837 C 211.164 143.697,210.120 144.400,209.838 144.400 C 209.555 144.400,208.801 144.850,208.162 145.401 C 207.523 145.951,206.460 146.659,205.800 146.974 C 205.140 147.290,203.970 148.213,203.200 149.026 C 201.653 150.660,196.202 154.400,195.367 154.400 C 195.076 154.400,194.472 155.226,194.026 156.235 C 193.580 157.244,192.145 159.115,190.839 160.394 C 187.226 163.929,185.529 166.538,185.678 168.328 C 185.861 170.537,187.385 170.571,188.977 168.403 C 189.624 167.521,190.293 166.800,190.464 166.800 C 190.635 166.800,191.505 165.812,192.397 164.604 C 193.290 163.396,194.510 161.881,195.110 161.238 C 198.577 157.518,199.692 156.400,199.932 156.400 C 200.079 156.400,200.896 155.780,201.746 155.023 C 202.596 154.267,203.888 153.365,204.616 153.019 C 205.345 152.673,206.317 151.781,206.777 151.037 C 207.844 149.310,208.908 148.627,212.498 147.361 C 214.094 146.798,215.760 145.933,216.200 145.440 C 217.316 144.187,223.046 142.946,223.972 143.756 C 224.318 144.058,225.005 144.429,225.500 144.580 C 225.995 144.730,226.400 145.009,226.400 145.198 C 226.400 145.388,227.345 145.903,228.500 146.343 C 229.655 146.783,231.320 147.498,232.200 147.931 C 233.080 148.364,234.563 148.923,235.495 149.173 C 236.992 149.575,237.306 149.873,238.182 151.724 C 239.311 154.112,241.284 156.305,242.599 156.635 C 243.202 156.787,243.665 157.385,244.027 158.483 C 244.322 159.375,244.755 160.307,244.990 160.553 C 245.225 160.799,246.273 162.209,247.319 163.686 C 248.364 165.163,249.450 166.513,249.730 166.686 C 250.610 167.228,252.054 169.560,252.470 171.111 C 253.118 173.523,254.663 175.846,255.985 176.394 C 256.653 176.671,257.200 177.116,257.200 177.384 C 257.200 178.702,261.235 185.918,262.775 187.353 C 263.692 188.208,264.545 189.423,264.671 190.053 C 264.797 190.684,265.020 191.200,265.167 191.200 C 265.314 191.200,265.777 192.209,266.196 193.442 C 266.686 194.881,267.593 196.349,268.732 197.542 C 270.394 199.284,272.799 203.538,272.800 204.738 C 272.800 205.724,274.448 207.608,276.002 208.401 C 277.254 209.040,277.691 209.596,278.375 211.425 C 279.677 214.905,280.367 216.064,282.252 217.940 C 283.213 218.896,284.000 219.796,284.000 219.940 C 284.001 220.083,284.465 220.739,285.032 221.399 C 285.599 222.058,286.419 223.426,286.854 224.438 C 287.370 225.637,288.231 226.691,289.323 227.463 C 290.410 228.231,291.400 229.440,292.137 230.902 C 293.280 233.169,294.167 234.021,295.985 234.596 C 297.104 234.950,298.091 236.089,299.363 238.495 C 299.937 239.580,300.820 240.463,301.905 241.037 C 304.317 242.313,305.452 243.298,305.793 244.415 C 306.262 245.947,307.202 246.797,309.800 248.037 C 311.120 248.668,313.173 250.085,314.362 251.186 C 316.434 253.106,319.835 254.800,321.615 254.800 C 322.047 254.800,322.400 254.948,322.400 255.129 C 322.400 255.311,323.476 255.659,324.792 255.904 C 326.107 256.148,327.682 256.624,328.292 256.961 C 334.747 260.532,337.860 260.719,342.166 257.797 C 342.984 257.242,344.985 256.566,346.982 256.169 C 348.862 255.796,350.400 255.335,350.400 255.145 C 350.400 254.955,350.688 254.800,351.041 254.800 C 352.244 254.800,355.574 252.614,356.232 251.392 C 356.658 250.601,357.535 249.906,358.730 249.411 C 361.530 248.253,367.357 242.248,368.827 239.004 C 369.591 237.320,370.281 236.365,370.868 236.178 C 372.016 235.814,375.813 232.018,376.177 230.871 C 376.332 230.385,377.142 229.637,377.979 229.211 C 379.833 228.265,381.444 226.421,381.789 224.851 C 382.597 221.169,391.701 220.877,392.611 224.503 C 393.104 226.464,394.951 227.731,397.600 227.923 L 400.000 228.096 400.000 225.848 L 400.000 223.600 398.540 223.600 C 397.397 223.600,396.785 223.296,395.715 222.194 C 393.024 219.423,390.951 218.730,386.769 219.203 C 381.823 219.764,380.781 220.375,378.378 224.127 C 377.840 224.967,376.710 226.014,375.867 226.452 C 375.024 226.891,374.034 227.805,373.667 228.484 C 372.574 230.506,370.774 232.397,369.157 233.222 C 368.060 233.782,367.414 234.505,366.827 235.832 C 366.378 236.847,364.805 238.884,363.308 240.389 C 361.818 241.885,360.060 243.781,359.400 244.601 C 358.740 245.421,357.262 246.531,356.116 247.068 C 354.916 247.630,353.500 248.716,352.777 249.629 C 351.076 251.776,350.788 251.893,344.453 253.005 C 341.407 253.539,338.485 254.131,337.958 254.321 C 336.901 254.703,323.810 252.515,321.553 251.580 C 320.852 251.290,319.451 250.336,318.439 249.459 C 317.428 248.583,315.430 247.324,314.000 246.660 C 312.570 245.997,311.310 245.339,311.200 245.198 C 311.090 245.057,310.697 244.830,310.327 244.694 C 309.957 244.557,309.026 243.465,308.259 242.266 C 307.233 240.662,306.300 239.783,304.732 238.943 C 303.038 238.035,302.365 237.362,301.457 235.668 C 300.642 234.146,299.725 233.154,298.257 232.205 C 295.935 230.703,295.165 229.881,294.053 227.712 C 293.627 226.880,292.405 225.198,291.339 223.973 C 290.272 222.747,288.531 220.227,287.469 218.373 C 286.221 216.194,284.985 214.604,283.978 213.881 C 282.872 213.087,282.019 211.923,281.049 209.881 C 280.242 208.184,278.925 206.260,277.843 205.200 C 276.833 204.210,276.005 203.188,276.003 202.929 C 276.001 202.669,275.767 202.219,275.482 201.929 C 275.196 201.638,274.434 200.148,273.786 198.618 C 273.081 196.950,271.919 195.125,270.886 194.062 C 268.925 192.043,268.500 191.287,267.169 187.448 C 266.469 185.429,265.765 184.267,264.523 183.084 C 262.846 181.485,260.000 176.676,260.000 175.441 C 260.000 175.089,259.010 173.818,257.800 172.617 C 256.590 171.417,255.600 170.157,255.600 169.817 C 255.600 169.478,255.460 169.200,255.289 169.200 C 255.118 169.200,254.460 168.012,253.828 166.560 C 253.153 165.012,251.891 163.099,250.776 161.936 C 249.730 160.845,248.224 158.716,247.430 157.205 C 246.422 155.285,245.536 154.179,244.493 153.537 C 242.597 152.369,241.324 151.003,240.345 149.089 C 239.763 147.951,239.011 147.309,237.299 146.489 C 234.888 145.334,234.367 144.982,231.950 142.865 C 229.557 140.770,221.205 139.266,217.400 140.246 " stroke="none" fill="#7e7e7e" fill-rule="evenodd"></path><path id="path4" d="M20.200 86.790 C 15.339 87.644,14.040 88.127,11.927 89.863 C 9.302 92.022,6.236 93.230,2.700 93.501 L 0.000 93.707 0.000 95.254 L 0.000 96.800 2.589 96.800 C 5.015 96.800,11.158 95.727,11.600 95.227 C 11.710 95.102,12.686 94.553,13.769 94.008 C 15.214 93.279,15.903 92.631,16.356 91.568 C 17.729 88.353,31.675 88.228,33.555 91.414 C 34.278 92.639,38.039 94.800,39.448 94.800 C 39.752 94.800,40.000 94.956,40.000 95.146 C 40.000 95.336,40.765 95.602,41.700 95.737 C 45.087 96.226,46.302 96.768,47.120 98.153 C 47.562 98.903,48.848 100.026,50.053 100.714 C 51.970 101.810,53.159 102.205,56.856 102.973 C 57.588 103.126,57.995 103.531,58.183 104.297 C 58.633 106.128,59.580 107.237,61.334 107.988 C 62.250 108.380,63.769 109.030,64.708 109.431 C 65.723 109.865,66.715 110.668,67.153 111.410 C 67.559 112.097,68.770 113.174,69.845 113.804 C 70.920 114.433,72.027 115.174,72.305 115.450 C 72.582 115.726,73.662 116.067,74.705 116.206 C 77.419 116.569,77.401 116.557,77.934 118.337 C 78.453 120.071,79.887 121.464,81.565 121.865 C 83.289 122.277,84.800 123.186,84.800 123.810 C 84.800 124.135,84.980 124.400,85.200 124.400 C 85.420 124.400,85.600 124.736,85.600 125.146 C 85.600 126.333,87.084 127.900,88.706 128.427 C 90.608 129.043,92.400 130.294,92.400 131.005 C 92.400 131.936,94.225 133.737,95.649 134.211 C 96.741 134.574,97.244 135.146,98.272 137.188 C 99.784 140.192,100.256 140.706,102.496 141.781 C 103.433 142.232,104.378 143.005,104.595 143.500 C 104.812 143.995,105.127 144.400,105.295 144.400 C 105.463 144.400,105.600 144.736,105.600 145.146 C 105.600 146.335,107.085 147.901,108.706 148.422 C 110.718 149.068,111.390 149.723,111.948 151.585 C 112.451 153.264,114.030 154.800,115.254 154.800 C 115.664 154.800,116.000 154.937,116.000 155.105 C 116.000 155.273,116.404 155.588,116.898 155.805 C 117.392 156.022,118.028 156.740,118.312 157.400 C 119.695 160.618,119.782 160.705,123.000 162.088 C 123.660 162.372,124.378 163.008,124.595 163.502 C 124.812 163.996,125.127 164.400,125.295 164.400 C 125.463 164.400,125.600 164.736,125.600 165.146 C 125.600 166.155,127.017 167.891,128.110 168.222 C 130.904 169.068,132.831 170.187,133.527 171.366 C 133.993 172.156,135.144 173.081,136.541 173.788 C 137.783 174.416,138.800 175.067,138.800 175.233 C 138.800 175.400,140.045 175.819,141.568 176.165 C 143.963 176.710,144.602 177.059,146.321 178.759 C 148.654 181.068,149.676 181.351,157.972 181.987 C 167.333 182.704,171.965 181.767,174.653 178.613 C 175.748 177.329,176.771 176.609,178.154 176.149 C 180.408 175.400,181.048 174.949,183.823 172.158 C 185.653 170.318,185.836 169.973,185.683 168.658 C 185.448 166.645,184.972 166.794,181.478 169.980 C 179.365 171.906,177.903 172.903,176.715 173.228 C 173.113 174.212,172.376 174.481,171.854 175.003 C 170.240 176.617,165.372 178.581,163.000 178.574 C 160.809 178.568,150.582 175.913,150.000 175.200 C 149.683 174.811,147.600 174.049,145.067 173.395 C 142.671 172.777,139.470 170.881,139.072 169.844 C 138.949 169.524,137.272 168.512,135.344 167.596 C 132.476 166.234,131.202 165.303,128.326 162.466 C 123.122 157.335,121.696 155.905,119.626 153.750 C 118.596 152.678,115.898 150.000,113.631 147.800 C 111.364 145.600,108.721 142.781,107.758 141.535 C 106.795 140.289,105.400 138.895,104.659 138.436 C 103.918 137.978,102.797 136.838,102.169 135.902 C 99.260 131.567,97.070 129.179,94.678 127.736 C 93.315 126.914,90.871 124.928,89.246 123.322 C 87.621 121.716,85.476 119.997,84.479 119.501 C 83.448 118.989,81.985 117.740,81.086 116.605 C 79.303 114.352,78.922 114.060,76.400 113.009 C 75.410 112.597,73.700 111.421,72.600 110.398 C 71.023 108.930,66.038 105.600,65.419 105.600 C 65.350 105.600,64.418 104.774,63.347 103.765 C 62.196 102.680,59.847 101.176,57.600 100.087 C 55.143 98.895,53.216 97.635,52.147 96.521 C 50.439 94.740,49.343 94.164,44.646 92.575 C 43.126 92.061,41.234 91.119,40.442 90.482 C 36.513 87.325,27.017 85.593,20.200 86.790 " stroke="none" fill="#bc6426" fill-rule="evenodd"></path></g></svg>